<?xml version="1.0" encoding="UTF-8" standalone="no"?>
<!-- Created with Inkscape (http://www.inkscape.org/) -->

<svg
   width="17.023935mm"
   height="18.410442mm"
   viewBox="0 0 17.023935 18.410442"
   version="1.1"
   id="svg1"
   sodipodi:docname="新建文档 1.2026_03_10_17_04_05.0.svg"
   xmlns:inkscape="http://www.inkscape.org/namespaces/inkscape"
   xmlns:sodipodi="http://sodipodi.sourceforge.net/DTD/sodipodi-0.dtd"
   xmlns="http://www.w3.org/2000/svg"
   xmlns:svg="http://www.w3.org/2000/svg">
  <sodipodi:namedview
     id="namedview1"
     pagecolor="#ffffff"
     bordercolor="#000000"
     borderopacity="0.25"
     inkscape:showpageshadow="2"
     inkscape:pageopacity="0.0"
     inkscape:pagecheckerboard="0"
     inkscape:deskcolor="#d1d1d1"
     inkscape:document-units="mm">
    <inkscape:page
       x="0"
       y="0"
       width="17.023935"
       height="18.410442"
       id="page2"
       margin="0"
       bleed="0" />
  </sodipodi:namedview>
  <defs
     id="defs1">
    <inkscape:path-effect
       effect="perspective-envelope"
       up_left_point="24.121668,23.560834"
       up_right_point="39.160445,27.874941"
       down_left_point="23.949103,42.288172"
       down_right_point="38.534899,49.277025"
       id="path-effect7"
       is_visible="true"
       lpeversion="1"
       deform_type="perspective"
       horizontal_mirror="false"
       vertical_mirror="false"
       overflow_perspective="false" />
    <inkscape:path-effect
       effect="powerclip"
       message=""
       id="path-effect6"
       is_visible="true"
       lpeversion="1"
       inverse="true"
       flatten="false"
       hide_clip="false" />
    <inkscape:path-effect
       effect="perspective-envelope"
       up_left_point="33.003633,29.875365"
       up_right_point="42.03445,33.353734"
       down_left_point="32.934268,39.95671"
       down_right_point="42.044137,43.749149"
       id="path-effect42"
       is_visible="true"
       lpeversion="1"
       deform_type="perspective"
       horizontal_mirror="false"
       vertical_mirror="false"
       overflow_perspective="false" />
    <clipPath
       clipPathUnits="userSpaceOnUse"
       id="clipPath6">
      <rect
         style="display:none;fill:#000000;stroke-width:0.733422"
         id="rect6"
         width="10"
         height="5"
         x="28.000002"
         y="33"
         d="m 27.35873,34.318669 7.376853,2.833657 -0.121294,5.129516 -7.321241,-3.162163 z" />
      <path
         id="lpe_path-effect6"
         style="fill:#000000;stroke-width:0.733422"
         class="powerclip"
         d="m 24.121668,23.560834 15.038777,4.314107 -0.625546,21.402084 -14.585796,-6.988853 z m 3.237062,10.757835 -0.06568,4.80101 7.321241,3.162163 0.121294,-5.129516 z" />
    </clipPath>
  </defs>
  <g
     inkscape:label="图层 1"
     inkscape:groupmode="layer"
     id="layer1"
     transform="translate(-9.2828301,-33.313819)">
    <path
       style="fill:#000000;stroke:none;stroke-width:1.5846;stroke-dasharray:none;stroke-opacity:1"
       d="m 26.306765,38.113156 -7.336508,3.182524 0.03922,10.42858 7.270363,-3.807017"
       id="path38-2"
       sodipodi:nodetypes="cccc"
       inkscape:export-filename="..\..\Code\ccg_frontend\public\icon_01.svg"
       inkscape:export-xdpi="96"
       inkscape:export-ydpi="96" />
    <path
       style="fill:#000000;stroke:none;stroke-width:1.6;stroke-dasharray:none;stroke-opacity:1"
       d="m 17.053803,34.428907 -7.7003105,2.714231 9.3327055,3.587758 7.402655,-3.261395"
       id="path38-2-6"
       sodipodi:nodetypes="cccc" />
    <path
       style="fill:#ffffff;stroke:none;stroke-width:1.6;stroke-dasharray:none;stroke-opacity:1"
       d="m 15.649584,35.894977 -1.154719,0.413153 6.276223,2.460039 1.116944,-0.490245"
       id="path38-2-6-6"
       sodipodi:nodetypes="cccc" />
    <g
       id="g41"
       inkscape:path-effect="#path-effect42"
       transform="translate(-23.651438,7.8907589)">
      <path
         style="fill:#000000;stroke:none;stroke-width:1.6;stroke-dasharray:none;stroke-opacity:1"
         id="rect41"
         height="10"
         x="32"
         y="32.5"
         width="10"
         sodipodi:type="rect"
         d="m 33.003633,29.875365 9.030817,3.478369 0.0097,10.395415 -9.109869,-3.792439 z" />
      <path
         style="fill:#ffffff;stroke:none;stroke-width:1.26697;stroke-dasharray:none;stroke-opacity:1"
         id="rect40"
         width="1"
         height="1"
         x="35.459885"
         y="33.491108"
         sodipodi:type="rect"
         d="m 36.06815,32.059121 0.898552,0.348843 -0.0035,1.01561 -0.899329,-0.351926 z" />
      <path
         style="fill:#ffffff;stroke:none;stroke-width:1.26697;stroke-dasharray:none;stroke-opacity:1"
         id="rect40-2"
         width="1"
         height="1"
         x="36.459885"
         y="33.491108"
         sodipodi:type="rect"
         d="m 36.966702,32.407964 0.903491,0.35076 -0.0027,1.018713 -0.904276,-0.353863 z" />
      <path
         style="fill:#ffffff;stroke:none;stroke-width:1.26697;stroke-dasharray:none;stroke-opacity:1"
         id="rect40-2-1"
         width="1"
         height="1"
         x="37.459885"
         y="33.491108"
         sodipodi:type="rect"
         d="m 37.870193,32.758724 0.908472,0.352694 -0.0019,1.021834 -0.909265,-0.355815 z" />
      <path
         style="fill:#ffffff;stroke:none;stroke-width:1.26697;stroke-dasharray:none;stroke-opacity:1"
         id="rect40-2-2"
         width="1"
         height="1"
         x="38.459885"
         y="34.491108"
         sodipodi:type="rect"
         d="m 38.776746,34.133252 0.914297,0.357784 -0.0011,1.026789 -0.915101,-0.360935 z" />
      <path
         style="fill:#ffffff;stroke:none;stroke-width:1.26697;stroke-dasharray:none;stroke-opacity:1"
         id="rect40-2-2-1"
         width="1"
         height="1"
         x="38.459885"
         y="35.491108"
         sodipodi:type="rect"
         d="m 38.774824,35.15689 0.915101,0.360935 -0.0011,1.028607 -0.915905,-0.364096 z" />
      <path
         style="fill:#ffffff;stroke:none;stroke-width:1.26697;stroke-dasharray:none;stroke-opacity:1"
         id="rect40-2-2-1-0"
         width="1"
         height="1"
         x="37.459885"
         y="36.491108"
         sodipodi:type="rect"
         d="m 37.862042,35.820247 0.910857,0.362089 -0.0019,1.02726 -0.911654,-0.365242 z" />
      <path
         style="fill:#ffffff;stroke:none;stroke-width:1.26697;stroke-dasharray:none;stroke-opacity:1"
         id="rect40-2-2-1-0-0"
         width="1"
         height="1"
         x="36.459885"
         y="37.491108"
         sodipodi:type="rect"
         d="m 36.952676,36.481121 0.90664,0.363233 -0.0027,1.025914 -0.90743,-0.366377 z" />
      <path
         style="fill:#ffffff;stroke:none;stroke-width:1.26697;stroke-dasharray:none;stroke-opacity:1"
         id="rect40-2-2-1-0-0-1"
         width="1"
         height="1"
         x="36.459885"
         y="38.491108"
         sodipodi:type="rect"
         d="m 36.949154,37.503891 0.90743,0.366377 -0.0027,1.027727 -0.908222,-0.369532 z" />
      <path
         style="fill:#ffffff;stroke:none;stroke-width:1.26697;stroke-dasharray:none;stroke-opacity:1"
         id="rect40-2-2-1-0-0-1-4"
         width="1"
         height="1"
         x="36.459885"
         y="40.491108"
         sodipodi:type="rect"
         d="m 36.942092,39.554841 0.909015,0.372697 -0.0027,1.031366 -0.909809,-0.375873 z" />
      <path
         style="fill:#ffffff;stroke:none;stroke-width:1.26697;stroke-dasharray:none;stroke-opacity:1"
         id="rect40-2-2-1-2"
         width="1"
         height="1"
         x="34.459885"
         y="34.491108"
         sodipodi:type="rect"
         d="m 35.169456,32.721642 0.89442,0.350006 -0.0043,1.014299 -0.89519,-0.353082 z" />
    </g>
    <g
       id="g4"
       transform="matrix(0.78569406,0,0,0.78569406,-6.2311721,9.3390228)"
       clip-path="url(#clipPath6)"
       inkscape:path-effect="#path-effect6;#path-effect7">
      <path
         style="fill:#000000;stroke:#ffffff;stroke-width:0.257763;stroke-opacity:1"
         id="path3"
         sodipodi:type="arc"
         sodipodi:cx="33"
         sodipodi:cy="33"
         sodipodi:rx="4.8711185"
         sodipodi:ry="4.8711185"
         d="m 34.633663,37.113176 c -0.06503,2.7663 -1.800381,4.268932 -3.805692,3.405262 -1.931212,-0.831756 -3.416343,-3.572685 -3.380558,-6.165704 0.03603,-2.611148 1.600874,-4.223841 3.56034,-3.563433 2.035656,0.686086 3.691428,3.536855 3.62591,6.323875 z" />
      <path
         style="fill:#000000;stroke:#ffffff;stroke-width:0.5;stroke-dasharray:none;stroke-opacity:1"
         id="path4"
         sodipodi:type="arc"
         sodipodi:cx="33"
         sodipodi:cy="33"
         sodipodi:rx="0.88316494"
         sodipodi:ry="0.88316494"
         d="m 31.572038,35.937119 c -0.0095,0.489643 -0.310919,0.770772 -0.67104,0.629385 -0.357659,-0.14042 -0.63891,-0.645383 -0.63039,-1.129301 0.0085,-0.484547 0.30437,-0.769287 0.662984,-0.634581 0.36109,0.135636 0.64794,0.64421 0.638446,1.134497 z" />
    </g>
  </g>
</svg>
